Coordinates
version=1
nRows=52
nColumns=21
inDegrees=no
endheader
time	ra_wr_s_p	ra_wr_e_f	ra_cmc1_ad_ab	ra_cmc1_f_e	ra_mcp1_f_e	ra_ip1_f_e	ra_mcp2_e_f	ra_pip2_e_f	ra_dip2_e_f	ra_mcp3_e_f	ra_pip3_e_f	ra_dip3_e_f	ra_mcp4_e_f	ra_pip4_e_f	ra_dip4_e_f	ra_mcp5_e_f	ra_pip5_e_f	ra_dip5_e_f	ra_el_e_f	ra_wr_ad_ab
0.125000	0.000000	0.087300	0.463681	0.463681	-0.417297	-0.834594	0.834594	1.112792	0.834594	0.834594	1.112792	0.834594	0.834594	1.112792	0.834594	0.834594	1.112792	0.834594	2.091284	0.085000
0.126000	0.000000	0.087300	0.464254	0.464254	-0.417812	-0.835625	0.835625	1.114166	0.835625	0.835625	1.114166	0.835625	0.835625	1.114166	0.835625	0.835625	1.114166	0.835625	2.087561	0.085000
0.127000	0.000000	0.087300	0.464835	0.464835	-0.418335	-0.836671	0.836671	1.115561	0.836671	0.836671	1.115561	0.836671	0.836671	1.115561	0.836671	0.836671	1.115561	0.836671	2.083784	0.085000
0.128000	0.000000	0.087300	0.465425	0.465425	-0.418866	-0.837732	0.837732	1.116976	0.837732	0.837732	1.116976	0.837732	0.837732	1.116976	0.837732	0.837732	1.116976	0.837732	2.079951	0.085000
0.129000	0.000000	0.087300	0.466023	0.466023	-0.419405	-0.838809	0.838809	1.118412	0.838809	0.838809	1.118412	0.838809	0.838809	1.118412	0.838809	0.838809	1.118412	0.838809	2.076062	0.085000
0.130000	0.000000	0.087300	0.466630	0.466630	-0.419951	-0.839902	0.839902	1.119869	0.839902	0.839902	1.119869	0.839902	0.839902	1.119869	0.839902	0.839902	1.119869	0.839902	2.072117	0.085000
0.131000	0.000000	0.087300	0.467246	0.467246	-0.420505	-0.841010	0.841010	1.121346	0.841010	0.841010	1.121346	0.841010	0.841010	1.121346	0.841010	0.841010	1.121346	0.841010	2.068115	0.085000
0.132000	0.000000	0.087300	0.467870	0.467870	-0.421067	-0.842134	0.842134	1.122845	0.842134	0.842134	1.122845	0.842134	0.842134	1.122845	0.842134	0.842134	1.122845	0.842134	2.064056	0.085000
0.133000	0.000000	0.087300	0.468503	0.468503	-0.421637	-0.843274	0.843274	1.124365	0.843274	0.843274	1.124365	0.843274	0.843274	1.124365	0.843274	0.843274	1.124365	0.843274	2.059940	0.085000
0.134000	0.000000	0.087300	0.469146	0.469146	-0.422215	-0.844430	0.844430	1.125907	0.844430	0.844430	1.125907	0.844430	0.844430	1.125907	0.844430	0.844430	1.125907	0.844430	2.055765	0.085000
0.135000	0.000000	0.087300	0.469797	0.469797	-0.422801	-0.845602	0.845602	1.127470	0.845602	0.845602	1.127470	0.845602	0.845602	1.127470	0.845602	0.845602	1.127470	0.845602	2.051531	0.085000
0.136000	0.000000	0.087300	0.470458	0.470458	-0.423396	-0.846791	0.846791	1.129055	0.846791	0.846791	1.129055	0.846791	0.846791	1.129055	0.846791	0.846791	1.129055	0.846791	2.047238	0.085000
0.137000	0.000000	0.087300	0.471127	0.471127	-0.423998	-0.847997	0.847997	1.130662	0.847997	0.847997	1.130662	0.847997	0.847997	1.130662	0.847997	0.847997	1.130662	0.847997	2.042886	0.085000
0.138000	0.000000	0.087300	0.471806	0.471806	-0.424609	-0.849219	0.849219	1.132291	0.849219	0.849219	1.132291	0.849219	0.849219	1.132291	0.849219	0.849219	1.132291	0.849219	2.038473	0.085000
0.139000	0.000000	0.087300	0.472494	0.472494	-0.425229	-0.850457	0.850457	1.133943	0.850457	0.850457	1.133943	0.850457	0.850457	1.133943	0.850457	0.850457	1.133943	0.850457	2.033999	0.085000
0.140000	0.000000	0.087300	0.473192	0.473192	-0.425857	-0.851713	0.851713	1.135618	0.851713	0.851713	1.135618	0.851713	0.851713	1.135618	0.851713	0.851713	1.135618	0.851713	2.029464	0.085000
0.141000	0.000000	0.087300	0.473899	0.473899	-0.426493	-0.852986	0.852986	1.137315	0.852986	0.852986	1.137315	0.852986	0.852986	1.137315	0.852986	0.852986	1.137315	0.852986	2.024868	0.085000
0.142000	0.000000	0.087300	0.474616	0.474616	-0.427138	-0.854276	0.854276	1.139035	0.854276	0.854276	1.139035	0.854276	0.854276	1.139035	0.854276	0.854276	1.139035	0.854276	2.020209	0.085000
0.143000	0.000000	0.087300	0.475342	0.475342	-0.427792	-0.855584	0.855584	1.140778	0.855584	0.855584	1.140778	0.855584	0.855584	1.140778	0.855584	0.855584	1.140778	0.855584	2.015488	0.085000
0.144000	0.000000	0.087300	0.476079	0.476079	-0.428454	-0.856909	0.856909	1.142545	0.856909	0.856909	1.142545	0.856909	0.856909	1.142545	0.856909	0.856909	1.142545	0.856909	2.010703	0.085000
0.145000	0.000000	0.087300	0.476824	0.476824	-0.429126	-0.858251	0.858251	1.144335	0.858251	0.858251	1.144335	0.858251	0.858251	1.144335	0.858251	0.858251	1.144335	0.858251	2.005855	0.085000
0.146000	0.000000	0.087300	0.477580	0.477580	-0.429806	-0.859611	0.859611	1.146149	0.859611	0.859611	1.146149	0.859611	0.859611	1.146149	0.859611	0.859611	1.146149	0.859611	2.000943	0.085000
0.147000	0.000000	0.087300	0.478346	0.478346	-0.430495	-0.860990	0.860990	1.147986	0.860990	0.860990	1.147986	0.860990	0.860990	1.147986	0.860990	0.860990	1.147986	0.860990	1.995966	0.085000
0.148000	0.000000	0.087300	0.479122	0.479122	-0.431193	-0.862386	0.862386	1.149848	0.862386	0.862386	1.149848	0.862386	0.862386	1.149848	0.862386	0.862386	1.149848	0.862386	1.990924	0.085000
0.149000	0.000000	0.087300	0.479907	0.479907	-0.431900	-0.863800	0.863800	1.151733	0.863800	0.863800	1.151733	0.863800	0.863800	1.151733	0.863800	0.863800	1.151733	0.863800	1.985817	0.085000
0.150000	0.000000	0.087300	0.480703	0.480703	-0.432616	-0.865233	0.865233	1.153643	0.865233	0.865233	1.153643	0.865233	0.865233	1.153643	0.865233	0.865233	1.153643	0.865233	1.980644	0.085000
0.151000	0.000000	0.087300	0.481509	0.481509	-0.433342	-0.866683	0.866683	1.155578	0.866683	0.866683	1.155578	0.866683	0.866683	1.155578	0.866683	0.866683	1.155578	0.866683	1.975405	0.085000
0.152000	0.000000	0.087300	0.482326	0.482326	-0.434076	-0.868153	0.868153	1.157537	0.868153	0.868153	1.157537	0.868153	0.868153	1.157537	0.868153	0.868153	1.157537	0.868153	1.970099	0.085000
0.153000	0.000000	0.087300	0.483152	0.483152	-0.434820	-0.869641	0.869641	1.159521	0.869641	0.869641	1.159521	0.869641	0.869641	1.159521	0.869641	0.869641	1.159521	0.869641	1.964726	0.085000
0.154000	0.000000	0.087300	0.483989	0.483989	-0.435574	-0.871147	0.871147	1.161530	0.871147	0.871147	1.161530	0.871147	0.871147	1.161530	0.871147	0.871147	1.161530	0.871147	1.959285	0.085000
0.155000	0.000000	0.087300	0.484837	0.484837	-0.436336	-0.872673	0.872673	1.163564	0.872673	0.872673	1.163564	0.872673	0.872673	1.163564	0.872673	0.872673	1.163564	0.872673	1.953776	0.085000
0.156000	0.000000	0.087300	0.485695	0.485695	-0.437109	-0.874217	0.874217	1.165623	0.874217	0.874217	1.165623	0.874217	0.874217	1.165623	0.874217	0.874217	1.165623	0.874217	1.948199	0.085000
0.157000	0.000000	0.087300	0.486564	0.486564	-0.437890	-0.875781	0.875781	1.167708	0.875781	0.875781	1.167708	0.875781	0.875781	1.167708	0.875781	0.875781	1.167708	0.875781	1.942553	0.085000
0.158000	0.000000	0.087300	0.487443	0.487443	-0.438682	-0.877364	0.877364	1.169818	0.877364	0.877364	1.169818	0.877364	0.877364	1.169818	0.877364	0.877364	1.169818	0.877364	1.936838	0.085000
0.159000	0.000000	0.087300	0.488333	0.488333	-0.439483	-0.878965	0.878965	1.171954	0.878965	0.878965	1.171954	0.878965	0.878965	1.171954	0.878965	0.878965	1.171954	0.878965	1.931054	0.085000
0.160000	0.000000	0.087300	0.489233	0.489233	-0.440293	-0.880587	0.880587	1.174115	0.880587	0.880587	1.174115	0.880587	0.880587	1.174115	0.880587	0.880587	1.174115	0.880587	1.925199	0.085000
0.161000	0.000000	0.087300	0.490145	0.490145	-0.441114	-0.882227	0.882227	1.176303	0.882227	0.882227	1.176303	0.882227	0.882227	1.176303	0.882227	0.882227	1.176303	0.882227	1.919275	0.085000
0.162000	0.000000	0.087300	0.491067	0.491067	-0.441944	-0.883887	0.883887	1.178517	0.883887	0.883887	1.178517	0.883887	0.883887	1.178517	0.883887	0.883887	1.178517	0.883887	1.913280	0.085000
0.163000	0.000000	0.087300	0.492001	0.492001	-0.442784	-0.885567	0.885567	1.180756	0.885567	0.885567	1.180756	0.885567	0.885567	1.180756	0.885567	0.885567	1.180756	0.885567	1.907214	0.085000
0.164000	0.000000	0.087300	0.492945	0.492945	-0.443633	-0.887267	0.887267	1.183022	0.887267	0.887267	1.183022	0.887267	0.887267	1.183022	0.887267	0.887267	1.183022	0.887267	1.901077	0.085000
0.165000	0.000000	0.087300	0.493900	0.493900	-0.444493	-0.888986	0.888986	1.185315	0.888986	0.888986	1.185315	0.888986	0.888986	1.185315	0.888986	0.888986	1.185315	0.888986	1.894868	0.085000
0.166000	0.000000	0.087300	0.494866	0.494866	-0.445363	-0.890725	0.890725	1.187633	0.890725	0.890725	1.187633	0.890725	0.890725	1.187633	0.890725	0.890725	1.187633	0.890725	1.888588	0.085000
0.167000	0.000000	0.087300	0.495843	0.495843	-0.446242	-0.892484	0.892484	1.189979	0.892484	0.892484	1.189979	0.892484	0.892484	1.189979	0.892484	0.892484	1.189979	0.892484	1.882236	0.085000
0.168000	0.000000	0.087300	0.496832	0.496832	-0.447132	-0.894263	0.894263	1.192351	0.894263	0.894263	1.192351	0.894263	0.894263	1.192351	0.894263	0.894263	1.192351	0.894263	1.875812	0.085000
0.169000	0.000000	0.087300	0.497831	0.497831	-0.448031	-0.896062	0.896062	1.194750	0.896062	0.896062	1.194750	0.896062	0.896062	1.194750	0.896062	0.896062	1.194750	0.896062	1.869315	0.085000
0.170000	0.000000	0.087300	0.498842	0.498842	-0.448941	-0.897882	0.897882	1.197176	0.897882	0.897882	1.197176	0.897882	0.897882	1.197176	0.897882	0.897882	1.197176	0.897882	1.862745	0.085000
0.171000	0.000000	0.087300	0.499864	0.499864	-0.449861	-0.899721	0.899721	1.199628	0.899721	0.899721	1.199628	0.899721	0.899721	1.199628	0.899721	0.899721	1.199628	0.899721	1.856103	0.085000
0.172000	0.000000	0.087300	0.500897	0.500897	-0.450790	-0.901581	0.901581	1.202108	0.901581	0.901581	1.202108	0.901581	0.901581	1.202108	0.901581	0.901581	1.202108	0.901581	1.849387	0.085000
0.173000	0.000000	0.087300	0.501942	0.501942	-0.451730	-0.903461	0.903461	1.204614	0.903461	0.903461	1.204614	0.903461	0.903461	1.204614	0.903461	0.903461	1.204614	0.903461	1.842598	0.085000
0.174000	0.000000	0.087300	0.502998	0.502998	-0.452681	-0.905361	0.905361	1.207148	0.905361	0.905361	1.207148	0.905361	0.905361	1.207148	0.905361	0.905361	1.207148	0.905361	1.835736	0.085000
0.175000	0.000000	0.087300	0.504065	0.504065	-0.453641	-0.907282	0.907282	1.209709	0.907282	0.907282	1.209709	0.907282	0.907282	1.209709	0.907282	0.907282	1.209709	0.907282	1.828801	0.085000
0.176000	0.000000	0.087300	0.505143	0.505143	-0.454611	-0.909223	0.909223	1.212297	0.909223	0.909223	1.212297	0.909223	0.909223	1.212297	0.909223	0.909223	1.212297	0.909223	1.821791	0.085000
